# xmcd CD database file
# Copyright (C) 1993-1998 Ti Kan
# 
# Track frame offsets:
#     150
#     22077
#     51710
#     81982
#     106410
#     130612
#     216797
#     237845
#     253900
#     278335
#     300835
#     324452
# 
# Disc length: 4597 seconds
# 
# Revision: 1
# Processed by: cddbd v1.4b41PL1 Copyright (c) Steve Scherf et al.
# Submitted via: DiscPlay 4.0.4
# 
DISCID=a311f30c
DTITLE=Isley Brothers - Live!
DYEAR=1900
DGENRE=
TTITLE0=Here i go again
TTITLE1=Between the sheets
TTITLE2=Smooth sailin' tonight
TTITLE3=Voyage to Atlantis
TTITLE4=Take me to the next fase
TTITLE5=Medley: Choosey lover - Footsteps in the dark - Groove with you - Hello
TTITLE5=, it's me - don't say goodnight
TTITLE6=Who's that lady
TTITLE7=It's your thing
TTITLE8=Shout
TTITLE9=For the love of you
TTITLE10=Fight the power
TTITLE11=Make me say it again
EXTD=
EXTT0=
EXTT1=
EXTT2=
EXTT3=
EXTT4=
EXTT5=
EXTT6=
EXTT7=
EXTT8=
EXTT9=
EXTT10=
EXTT11=
PLAYORDER=
